<svg width="70" height="70" viewBox="0 0 70 70" fill="none" xmlns="http://www.w3.org/2000/svg">
<g filter="url(#filter0_d_2_471)">
<circle cx="35" cy="35" r="25" fill="white"/>
</g>
<path d="M35.291 25C35.6287 25.0613 35.9051 25.2452 36.1507 25.4903C38.9143 28.2791 41.7085 31.0372 44.4721 33.7954C45.3012 34.5921 45.0555 35.6341 44.4107 36.0938C43.8887 36.4615 43.1517 36.4922 42.6604 36.0938C42.5376 36.0019 42.4455 35.9099 42.3534 35.818C40.7874 34.255 39.1906 32.6615 37.5939 31.0679C37.5018 30.9759 37.4404 30.9146 37.3483 30.8534C37.0105 30.6388 36.5806 30.8227 36.5192 31.2211C36.4885 31.3437 36.5192 31.4356 36.5192 31.5582C36.5192 36.9519 36.5192 37.9632 36.5192 43.3569C36.5192 44.0004 36.3043 44.5214 35.7209 44.8279C34.8304 45.3182 33.6943 44.7053 33.6021 43.694C33.6021 43.5407 33.5714 43.3875 33.5714 43.2343C33.5714 37.8713 33.5714 36.9212 33.5714 31.5889C33.5714 31.2824 33.5714 30.9453 33.203 30.8227C32.8652 30.7001 32.6502 30.9146 32.4046 31.1292C30.8079 32.7228 29.1805 34.347 27.5837 35.9406C26.9696 36.5228 26.1406 36.6148 25.5264 36.0938C24.943 35.6341 24.8202 34.7454 25.2808 34.1325C25.3729 34.0099 25.465 33.9179 25.5571 33.826C28.3207 31.0372 31.1149 28.2485 33.8785 25.4903C34.1241 25.2452 34.3698 25.0613 34.7383 25.0306C34.9225 25 35.1067 25 35.291 25Z" fill="#19B0B7"/>
<defs>
<filter id="filter0_d_2_471" x="0" y="0" width="70" height="70" filterUnits="userSpaceOnUse" color-interpolation-filters="sRGB">
<feFlood flood-opacity="0" result="BackgroundImageFix"/>
<feColorMatrix in="SourceAlpha" type="matrix" values="0 0 0 0 0 0 0 0 0 0 0 0 0 0 0 0 0 0 127 0" result="hardAlpha"/>
<feOffset/>
<feGaussianBlur stdDeviation="5"/>
<feComposite in2="hardAlpha" operator="out"/>
<feColorMatrix type="matrix" values="0 0 0 0 0 0 0 0 0 0 0 0 0 0 0 0 0 0 0.2 0"/>
<feBlend mode="normal" in2="BackgroundImageFix" result="effect1_dropShadow_2_471"/>
<feBlend mode="normal" in="SourceGraphic" in2="effect1_dropShadow_2_471" result="shape"/>
</filter>
</defs>
</svg>
