<svg width="25" height="25" viewBox="0 0 25 25" fill="none" xmlns="http://www.w3.org/2000/svg">
<g opacity="0.1" clip-path="url(#clip0_2_434)">
<path d="M25 24.0196C24.9673 24.085 24.9347 24.1176 24.9347 24.183C24.6079 25 23.6275 25.2614 22.9739 24.6732C22.9085 24.6078 22.8432 24.5425 22.7778 24.4771C19.4118 21.1438 16.0785 17.8105 12.7124 14.4444C12.6471 14.3791 12.6144 14.281 12.549 14.183C12.4183 14.3137 12.353 14.3791 12.2876 14.4444C8.92159 17.8105 5.55557 21.1765 2.15688 24.5752C1.69936 25.0327 1.14381 25.1307 0.620932 24.8693C-0.0326624 24.5098 -0.228741 23.6601 0.228776 23.0392C0.294135 22.9412 0.392174 22.8431 0.490214 22.7778C3.85623 19.4444 7.18956 16.0784 10.5229 12.7451C10.5883 12.6797 10.6863 12.6144 10.7843 12.5163C10.6863 12.4183 10.6209 12.3529 10.5556 12.2876C7.18956 8.92157 3.82355 5.55556 0.424854 2.15686C0.0326971 1.76471 -0.0980219 1.33987 0.0653768 0.784314C0.228776 0.359477 0.588253 0.130719 0.98041 0C1.14381 0 1.30721 0 1.47061 0C1.83008 0.0980392 2.09152 0.359477 2.35296 0.620915C5.65361 3.92157 8.98695 7.2549 12.2876 10.5556C12.353 10.6209 12.3856 10.719 12.4183 10.817C12.451 10.817 12.4837 10.7843 12.549 10.7843C12.6144 10.6863 12.6798 10.6209 12.7451 10.5229C16.0458 7.22222 19.3464 3.92157 22.6471 0.620915C22.9085 0.359477 23.17 0.0980392 23.5294 0C23.6928 0 23.8562 0 24.0196 0C24.5098 0.163399 24.8366 0.490196 25 0.980392C25 1.14379 25 1.30719 25 1.47059C24.8693 1.83007 24.6405 2.0915 24.3791 2.38562C21.0458 5.68628 17.7451 8.98693 14.4445 12.2876C14.3791 12.3529 14.3137 12.4183 14.2157 12.5163C14.3137 12.5817 14.3791 12.6471 14.4445 12.7124C17.7451 16.0131 21.0458 19.3137 24.3464 22.6144C24.6079 22.8758 24.8693 23.1699 25 23.5294C25 23.6928 25 23.8562 25 24.0196Z" fill="#6A9496"/>
</g>
<defs>
<clipPath id="clip0_2_434">
<rect width="25" height="25" fill="white"/>
</clipPath>
</defs>
</svg>
