<svg width="16" height="16" viewBox="0 0 16 16" fill="none" xmlns="http://www.w3.org/2000/svg">
<path d="M3.94178 0C6.15877 0 8.35485 0 10.5718 0C10.6137 0 10.6555 0.020915 10.6973 0.020915C11.3666 0.0627451 12.015 0.20915 12.6006 0.501961C13.5418 0.962092 14.2738 1.63137 14.7549 2.57255C15.3405 3.70196 15.4451 4.91503 15.1732 6.14902C14.7758 7.9268 13.6673 9.07712 11.9522 9.66275C11.3457 9.8719 10.6973 9.93464 10.049 9.93464C8.85681 9.93464 7.66466 9.93464 6.4725 9.93464C6.40975 9.93464 6.34701 9.93464 6.28426 9.93464C6.28426 10.3948 6.28426 10.834 6.28426 11.2732C6.34701 11.2732 6.40975 11.2732 6.4725 11.2732C8.29211 11.2732 10.0908 11.2732 11.9104 11.2732C12.2241 11.2732 12.3705 11.3778 12.3705 11.6706C12.3705 12.1307 12.3705 12.5908 12.3705 13.0719C12.3705 13.3229 12.245 13.4484 11.9732 13.4693C11.9313 13.4693 11.8686 13.4693 11.8267 13.4693C10.049 13.4693 8.27119 13.4693 6.4725 13.4693C6.40975 13.4693 6.34701 13.4693 6.26335 13.4693C6.26335 13.5529 6.26335 13.5948 6.26335 13.6575C6.26335 14.285 6.26335 14.9124 6.26335 15.5399C6.26335 15.8745 6.13786 16 5.7823 16C5.23851 16 4.67381 16 4.13002 16C3.75355 16 3.62806 15.8745 3.62806 15.498C3.62806 14.8706 3.62806 14.2431 3.62806 13.6157C3.62806 13.5529 3.62806 13.5111 3.62806 13.4484C3.5444 13.4484 3.48165 13.4484 3.41891 13.4484C2.68688 13.4484 1.93394 13.4484 1.20191 13.4484C0.846356 13.4484 0.720866 13.3229 0.720866 12.9673C0.720866 12.549 0.720866 12.1516 0.720866 11.7333C0.720866 11.3778 0.846356 11.2732 1.181 11.2732C1.93394 11.2732 2.68688 11.2732 3.43982 11.2732C3.50257 11.2732 3.5444 11.2732 3.60714 11.2732C3.60714 10.8131 3.60714 10.3739 3.60714 9.93464C3.5444 9.93464 3.48165 9.93464 3.41891 9.93464C2.66596 9.93464 1.93394 9.93464 1.181 9.93464C0.825441 9.93464 0.699951 9.80915 0.699951 9.4536C0.699951 8.97255 0.699951 8.4915 0.699951 7.98954C0.699951 7.61307 0.825441 7.48758 1.20191 7.48758C1.93394 7.48758 2.68688 7.48758 3.41891 7.48758C3.48165 7.48758 3.5444 7.48758 3.60714 7.48758C3.60714 7.40392 3.60714 7.34118 3.60714 7.25752C3.60714 4.99869 3.60714 2.71895 3.60714 0.460131C3.66989 0.271895 3.71172 0.0836601 3.94178 0ZM6.30518 7.5085C6.34701 7.5085 6.36792 7.5085 6.40976 7.5085C7.60191 7.5085 8.79407 7.5085 9.98623 7.5085C10.4464 7.5085 10.9065 7.42484 11.3248 7.19477C12.7261 6.46275 12.8516 4.8732 12.3915 3.86928C11.9732 2.9281 11.1993 2.46797 10.1954 2.44706C8.91956 2.40523 7.64374 2.42614 6.38884 2.42614C6.36792 2.42614 6.32609 2.44706 6.30518 2.44706C6.30518 4.12026 6.30518 5.81438 6.30518 7.5085Z" fill="#19B0B7"/>
</svg>
