<svg width="7" height="10" viewBox="0 0 7 10" fill="none" xmlns="http://www.w3.org/2000/svg">
<path d="M0.409894 4.25494C1.05938 4.44317 1.70886 4.63141 2.38928 4.81964C2.38928 4.50592 2.38928 4.22357 2.38928 3.94121C2.4202 2.62357 2.91505 1.5569 3.93567 0.741212C3.99752 0.678467 4.05938 0.647095 4.12123 0.615723C4.21402 1.05494 4.24495 1.49415 4.36866 1.93337C4.61608 2.84317 5.14185 3.56474 5.85319 4.16082C6.99752 5.102 7.09031 6.54514 6.71917 7.58043C6.28618 8.80396 5.11092 9.61965 3.81196 9.61965C3.31711 9.61965 2.79134 9.61965 2.29649 9.49416C0.7501 9.08631 -0.208662 7.58043 0.0387602 5.91768C0.100616 5.47847 0.224327 5.03925 0.317111 4.60004C0.317111 4.47455 0.348038 4.34906 0.409894 4.25494Z" fill="#F1721C"/>
</svg>
