<svg width="18" height="24" viewBox="0 0 18 24" fill="none" xmlns="http://www.w3.org/2000/svg">
<path d="M8.19587 24C8.04123 24 7.88659 24 7.73195 24C7.67009 24 7.60824 23.9686 7.54638 23.9686C4.91752 23.6863 2.87628 22.4314 1.39174 20.2353C0.0927752 18.2902 -0.185575 16.1255 0.123703 13.8353C0.371126 12.0784 0.896899 10.4157 1.60824 8.78431C1.67009 8.65882 1.73195 8.62745 1.85566 8.65882C2.41236 8.84706 2.99999 9.00392 3.55669 9.16078C3.95875 9.28627 4.39174 9.41177 4.79381 9.50588C4.82473 9.47451 4.82473 9.44314 4.82473 9.44314C4.82473 9.41177 4.82473 9.38039 4.82473 9.34902C5.16494 6.58824 6.40205 4.29804 8.53607 2.54118C9.3402 1.88235 10.2371 1.41176 11.134 0.941177C11.6907 0.627451 12.2474 0.313726 12.835 0H12.866C12.7423 1.00392 12.6185 2.00784 12.5258 3.01177C12.3093 5.42745 13.0515 7.46667 14.8144 9.09804C15.3711 9.63137 15.9278 10.1647 16.3917 10.7608C17.8144 12.6431 18.1856 14.8078 17.7835 17.098C17.2268 20.3294 14.6907 23.0275 11.5361 23.749C11.1031 23.8431 10.6392 23.9059 10.2062 24C10.0515 24 9.8969 24 9.74226 24C9.86597 23.9686 10.0206 23.9373 10.1443 23.9059C12.6804 23.4039 14.2577 20.8627 13.6392 18.3216C13.3917 17.349 12.835 16.5647 12.0928 15.9373C11.5979 15.5294 11.2887 14.9961 11.134 14.3373C11.0103 13.8353 11.0412 13.302 11.1031 12.7686C11.1649 12.2039 11.2268 11.6078 11.2887 11.0118C11.2268 11.0431 11.1959 11.0431 11.1649 11.0745C10.5155 11.4196 9.86597 11.7647 9.24741 12.1412C7.82473 12.9569 6.95875 14.1804 6.61855 15.8118C6.61855 15.8431 6.58762 15.9059 6.55669 15.9373C6.06185 15.7804 5.59793 15.6549 5.10308 15.5294C4.51546 16.7216 4.08247 18.102 4.08247 19.451C4.08247 21.3333 5.2268 23.0275 6.92783 23.6863C7.39174 23.8431 7.79381 23.9059 8.19587 24Z" fill="#F1721C"/>
</svg>
