<svg width="59" height="58" viewBox="0 0 59 58" fill="none" xmlns="http://www.w3.org/2000/svg">
<path d="M58.9999 55.4077C58.6758 56.5418 58.0274 57.3518 56.8928 57.8379C56.4065 57.9999 55.9203 57.9999 55.5961 57.9999C51.8681 57.9999 48.1401 57.9999 44.5741 57.9999C43.1153 57.9999 42.1428 57.5138 41.3324 56.2178C38.0906 51.1954 35.0109 46.1731 31.7692 41.1507C30.9587 39.8546 29.662 39.3686 28.5274 40.0166C28.0412 40.3407 27.5549 40.6647 27.2307 41.1507C23.989 46.0111 20.9093 51.0334 17.6675 55.8937C16.8571 57.1898 15.7225 57.8379 14.2637 57.8379C10.5357 57.8379 6.96973 57.8379 3.24171 57.8379C1.29665 57.8379 -5.25564e-05 56.7038 -0.16214 54.9217C-0.324228 54.1116 0.162035 53.3016 0.486211 52.6535C4.21423 46.6591 7.94225 40.6647 11.5082 34.6703C16.5329 26.7317 21.3955 18.6312 26.4203 10.6926C26.5824 10.3686 26.5824 10.0446 26.4203 9.72055C24.9615 7.6144 23.6648 5.34625 22.206 3.2401C21.8818 2.75407 21.5576 2.10602 21.7197 1.45798C21.8818 0.647922 22.5302 -0.000122741 23.3406 -0.162134C24.3131 -0.324145 24.9615 -0.000122741 25.4477 0.809933C26.5824 2.43004 27.5549 4.05016 28.6895 5.83228C28.8516 5.99429 29.0137 6.1563 29.1758 6.48032C29.3379 6.31831 29.4999 6.1563 29.4999 5.99429C30.6346 4.37418 31.6071 2.59206 32.7417 0.971944C33.5521 -0.162134 34.8488 -0.324145 35.8214 0.485911C36.6318 1.13396 36.7939 2.26803 36.1455 3.2401C34.8488 5.18424 33.5521 7.29038 32.2554 9.23451C32.0933 9.55854 31.7692 9.88256 31.6071 10.2066C32.5796 11.8267 33.5521 13.4468 34.5247 14.9049C42.3049 27.3798 50.0851 40.0166 57.7032 52.4915C58.0274 52.9775 58.1895 53.6256 58.5137 54.2736C58.9999 54.7597 58.9999 55.0837 58.9999 55.4077Z" fill="#6A9496"/>
</svg>
