<svg width="184" height="179" viewBox="0 0 184 179" fill="none" xmlns="http://www.w3.org/2000/svg">
<path d="M71.7086 163.839L72.3513 162.133L64.0879 158.722L63.4451 160.427L66.6587 161.754L62.527 172.272L64.2715 173.03L68.4032 162.512L71.7086 163.839ZM84.2875 165.165L82.2675 164.691L78.0439 170.851L76.6667 163.27L74.6467 162.796L76.6667 172.746L76.024 173.693C75.5649 174.262 75.1058 174.546 74.3713 174.357L73.4531 174.167L73.0859 175.873L74.3713 176.252C75.7485 176.536 76.6667 175.873 77.493 174.831L84.2875 165.165ZM96.3154 170.187C96.499 167.818 94.9382 166.113 92.5509 165.923L87.7765 165.544L86.7665 178.621L88.6946 178.81L89.0619 173.693L91.9082 173.883C94.3873 174.073 96.1318 172.556 96.3154 170.187ZM94.3873 169.998C94.2954 171.325 93.3773 172.083 92 171.988L89.2455 171.798L89.6128 167.439L92.3673 167.629C93.6527 167.818 94.4791 168.671 94.3873 169.998ZM103.661 178.81L103.202 171.988L108.802 178.431L111.281 178.242L105.405 171.798L109.812 165.26L107.425 165.449L103.11 171.988L102.651 165.734L100.723 165.923L101.733 179L103.661 178.81ZM122.391 167.534C121.932 165.734 121.289 164.407 120.096 163.649C118.994 162.986 117.8 162.891 116.515 163.27C115.23 163.649 114.311 164.407 113.669 165.544C112.934 166.871 113.118 168.292 113.669 170.377L113.852 171.23C114.403 173.125 114.862 174.831 116.331 175.683C117.433 176.347 118.627 176.442 119.912 176.062C121.198 175.683 122.208 174.925 122.759 173.788C123.585 172.177 123.218 170.661 122.575 168.576L122.391 167.534ZM120.739 168.766C121.289 170.945 121.657 171.988 121.106 173.03C120.739 173.693 120.188 174.167 119.453 174.357C118.719 174.546 118.076 174.452 117.433 174.073C116.607 173.599 116.24 172.367 115.872 171.135L115.597 170.093C115.138 168.482 114.862 167.25 115.321 166.302C115.689 165.639 116.24 165.165 116.974 164.976C117.709 164.786 118.351 164.881 118.994 165.26C119.912 165.734 120.188 166.871 120.739 168.766ZM140.663 167.629L135.429 155.689L133.685 156.542L133.593 165.544L126.982 159.669L125.238 160.522L130.471 172.462L132.216 171.609L128.727 163.649L133.96 168.197L135.246 167.629L135.337 160.522L138.826 168.482L140.663 167.629ZM153.884 158.248L146.447 147.635L139.102 153.036L146.539 163.649L148.1 162.512L141.673 153.32L145.804 150.193L152.232 159.385L153.884 158.248ZM165.178 146.782L155.996 137.685L150.854 143.276L154.802 147.161C158.108 150.478 158.108 151.804 157.098 152.941L156.822 153.226L158.108 154.457L158.659 153.889C160.403 151.994 160.128 149.909 156.271 146.024L153.333 143.181L155.904 140.433L163.8 148.298L165.178 146.782ZM173.992 134.084L172.523 133.137L169.126 138.538L165.912 136.358L168.759 131.81L167.289 130.862L164.443 135.411L161.321 133.326L164.719 127.925L163.25 126.977L158.842 133.989L169.493 141.096L173.992 134.084ZM177.94 126.598L171.88 123.755L180.052 121.765L181.062 119.491L172.798 121.671L169.309 114.564L168.299 116.838L171.88 123.85L166.371 121.292L165.545 123.092L177.114 128.493L177.94 126.598ZM181.246 105.088L180.695 106.983C181.888 107.646 182.439 108.783 182.072 110.205C181.888 110.963 181.429 111.531 180.786 111.816C179.96 112.29 179.226 112.195 176.747 111.437C174.268 110.773 173.625 110.394 173.166 109.542C172.798 108.973 172.707 108.215 172.89 107.457C173.258 106.035 174.359 105.467 175.645 105.467L176.196 103.477C173.625 103.193 171.88 104.614 171.238 106.888C170.87 108.215 171.054 109.447 171.605 110.584C172.431 112.195 173.808 112.574 176.196 113.237C178.583 113.9 179.868 114.374 181.429 113.427C182.531 112.763 183.266 111.816 183.633 110.489C184.367 108.31 183.541 106.225 181.246 105.088Z" fill="white"/>
<path d="M74.7385 5.11699L112.383 0L135.613 27.5749L130.746 30.0386L110.639 5.78031L90.99 27.3854L54.6307 29.0911L74.7385 5.11699Z" fill="white"/>
<path d="M43.7964 19.6151L60.5988 17.0566L50.6826 29.1858L35.0739 29.9439L43.7964 19.6151Z" fill="white"/>
<path d="M124.228 11.9397L139.285 9.85498L154.251 27.5749L151.13 29.1858L138.184 13.5506L131.665 20.7523L124.228 11.9397Z" fill="white"/>
<path d="M40.9501 38.4722C32.3194 49.938 13.8643 87.7469 9.82435 112.384L0 113.711C5.0499 85.6622 22.495 51.0751 32.503 39.4198L40.9501 38.4722Z" fill="white"/>
<path d="M41.0419 61.2144C31.9521 67.1842 26.7186 86.6099 30.024 92.6744C36.9102 85.757 42.6946 68.3214 41.0419 61.2144ZM33.2376 94.6644L24.7904 95.612C15.0579 96.6543 22.0359 63.6782 35.9002 60.6459L40.6747 60.0773C40.032 58.6559 38.9302 57.8031 37.3693 57.7083L45.8164 56.7607C54.8144 56.9503 47.1018 84.9042 37.3693 92.5797C35.7166 93.9063 34.3393 94.4749 33.2376 94.6644Z" fill="white"/>
<path d="M47.1936 91.4424C45.8164 75.1438 54.1717 56.571 64.4551 55.4339L72.9022 54.4863H74.4631C70.1477 64.3413 67.3014 81.6822 68.1277 89.1682L59.6806 90.021C58.9461 83.4826 60.9661 69.6478 64.3633 59.6981C58.487 66.6155 54.6307 79.1237 55.6407 90.4948L47.1936 91.4424Z" fill="white"/>
<path d="M85.7566 53.1596C81.8085 61.3089 79.054 75.1437 79.6967 82.8192C79.8803 84.8092 89.6128 58.2766 91.3574 52.8753L99.8045 51.9277C99.2536 52.0225 90.8983 82.7245 79.4212 101.487L70.9741 102.434C75.014 96.654 76.1158 94.9484 79.4212 87.3677L74.4631 87.9362C72.7186 88.1257 71.7087 85.7568 71.525 82.7245C70.9741 75.049 73.4532 62.3512 77.3094 54.1072L85.7566 53.1596Z" fill="white"/>
<path d="M111.649 52.9703C106.048 59.4139 101.457 73.8173 104.395 82.0613C109.904 74.9544 114.311 62.0672 111.649 52.9703ZM107.976 84.4303L99.529 85.3779C95.3054 85.8517 93.5609 76.7548 96.5909 66.3313C98.519 59.6034 103.844 50.9803 108.16 50.5065L110.639 50.2223C106.691 41.2202 96.8663 27.0063 126.064 22.9316L130.838 29.9438C89.9801 31.6495 123.86 39.5145 120.463 65.3837C118.994 76.5653 110.731 84.146 107.976 84.4303Z" fill="white"/>
<path d="M141.948 41.1255C138.918 43.4945 133.409 53.0651 131.481 57.2345C137.265 53.3494 148.1 48.1377 154.251 49.4643C150.762 57.045 147.732 66.1419 150.028 79.6925L141.581 80.64C139.653 69.3637 141.489 61.4987 144.152 54.676C122.483 64.4362 148.926 53.7285 137.541 73.8174C133.685 80.5453 132.491 82.0614 130.838 82.251L122.391 83.1985H122.116C115.046 84.0514 121.381 52.1175 133.593 42.0731L141.948 41.1255ZM129.736 62.0673C127.808 67.7528 126.982 73.5331 127.441 77.4182C127.717 77.0392 127.9 76.5654 128.176 76.0916C128.451 75.6178 128.726 75.144 129.002 74.5755C133.776 66.3314 131.94 63.3939 129.736 62.0673Z" fill="white"/>
<path d="M7.89624 58.8452C23.4132 52.0226 71.4332 42.3572 97.1418 41.7886L99.6208 36.0083C74.004 36.5769 32.7785 42.831 15.1497 48.1375L7.89624 58.8452Z" fill="white"/>
<path d="M159.21 66.3314C165.453 60.4564 171.788 48.422 169.768 44.5368C165.269 48.0429 159.026 57.4241 159.21 66.3314ZM166.647 43.2102L175.094 42.2626C185.102 41.1255 171.329 65.8576 162.974 68.5109L159.485 68.8899C160.036 72.2065 162.607 75.6178 165.82 78.0816L156.18 78.9344C143.05 67.3738 157.19 46.9058 163.158 44.2526C164.535 43.684 165.637 43.305 166.647 43.2102Z" fill="white"/>
<path d="M58.2116 115.038C58.8543 110.584 65.006 104.804 68.7705 104.425L75.1058 103.856C78.5948 103.477 81.6248 114.185 68.4032 119.681C78.1358 118.733 78.3194 132.094 64.8224 141.191L51.6008 142.707C66.1996 134.274 70.4232 120.439 59.9561 120.628C68.7705 117.122 71.3413 110.679 70.7905 107.173C69.4132 107.741 67.8523 109.257 65.7406 114.279L58.2116 115.038Z" fill="white"/>
<path d="M95.1218 145.171C94.6627 140.054 95.3054 134.274 96.499 128.588L95.8563 128.683C96.0399 128.683 96.3154 128.588 96.499 128.588C99.988 113.048 108.252 98.0756 112.108 97.6966L120.555 96.8438H121.014C132.491 99.876 123.677 126.03 105.681 127.735C104.395 133.421 104.395 138.917 104.854 144.129L95.1218 145.171ZM116.515 100.729C112.934 105.751 108.986 114.848 106.415 124.608C115.413 118.638 119.453 106.699 116.515 100.729Z" fill="white"/>
<path d="M153.425 87.8418C144.794 92.3902 131.94 108.973 133.501 123.376C138.184 119.87 142.774 106.794 145.162 98.5496L153.884 97.3177C152.874 104.14 155.629 118.449 160.862 123.945L151.956 124.893C149.844 122.618 147.916 119.018 146.723 114.943C143.601 119.776 142.499 123.471 140.112 124.987C139.561 125.366 139.01 125.556 138.643 125.651L126.982 127.262C119.178 128.399 126.798 97.5072 142.683 89.4527L153.425 87.8418Z" fill="white"/>
<path d="M47.1936 99.1181C34.2475 104.614 28.2794 130.483 34.4311 136.737C44.5309 130.01 51.8762 106.13 47.1936 99.1181ZM38.7465 138.633L27.7285 139.675C14.6906 140.338 21.7605 100.919 42.0519 98.5495L46.8263 98.1705C46.2754 96.7491 45.1736 95.8015 43.6128 95.7068L52.0599 95.0435C67.3932 95.8963 53.6207 136.264 38.7465 138.633Z" fill="white"/>
<path d="M96.2235 98.1706C96.958 96.4649 97.968 94.5698 99.1616 92.7693L106.231 91.9165C105.038 93.8117 104.028 95.6121 103.293 97.3178L96.2235 98.1706Z" fill="white"/>
<path d="M85.7564 120.818C91.7245 115.606 97.1417 104.993 95.0299 101.487C90.6227 104.614 85.3892 112.953 85.7564 120.818ZM91.9081 100.445L100.172 99.5921C109.629 98.6446 98.4271 120.344 90.2554 122.619L85.9401 123.187C86.5828 126.125 88.97 129.062 92 131.431L82.1756 132.095C68.9541 121.861 82.5429 103.667 88.4191 101.393C89.7964 100.824 90.99 100.54 91.9081 100.445Z" fill="white"/>
<path d="M86.8583 99.0232C87.5928 97.3175 88.6028 95.4223 89.7964 93.6219L96.8663 92.769C95.6727 94.6642 94.6627 96.4647 93.9281 98.1703L86.8583 99.0232Z" fill="white"/>
</svg>
