<svg width="30" height="30" viewBox="0 0 30 30" fill="none" xmlns="http://www.w3.org/2000/svg">
<g clip-path="url(#clip0_2_235)">
<path d="M8.31601 0C8.60401 0.216 8.91601 0.396 9.16801 0.636C13.632 5.076 18.096 9.528 22.548 13.968C22.644 14.064 22.74 14.16 22.824 14.268C23.172 14.7 23.172 15.288 22.824 15.732C22.752 15.816 22.68 15.888 22.608 15.972C18.072 20.496 13.536 25.02 9.00001 29.544C8.64001 29.904 8.23201 30.108 7.71601 29.952C6.96001 29.724 6.648 28.824 7.10401 28.176C7.18801 28.044 7.308 27.936 7.416 27.828C11.616 23.64 15.804 19.464 20.004 15.276C20.088 15.192 20.184 15.132 20.328 14.928C20.232 14.868 20.112 14.82 20.028 14.748C15.804 10.548 11.592 6.336 7.36801 2.136C6.88801 1.656 6.768 1.188 6.98401 0.684C7.14001 0.324 7.45201 0.156 7.77601 0C7.96801 0 8.14801 0 8.31601 0Z" fill="#C6E7DC"/>
</g>
<defs>
<clipPath id="clip0_2_235">
<rect width="30" height="30" fill="white"/>
</clipPath>
</defs>
</svg>
