<svg width="30" height="30" viewBox="0 0 30 30" fill="none" xmlns="http://www.w3.org/2000/svg">
<g clip-path="url(#clip0_716_141)">
<path d="M8.31598 0C8.60398 0.216 8.91597 0.396 9.16797 0.636C13.632 5.076 18.096 9.528 22.548 13.968C22.644 14.064 22.74 14.16 22.824 14.268C23.172 14.7 23.172 15.288 22.824 15.732C22.752 15.816 22.68 15.888 22.608 15.972C18.072 20.496 13.536 25.02 8.99997 29.544C8.63997 29.904 8.23198 30.108 7.71597 29.952C6.95997 29.724 6.64797 28.824 7.10397 28.176C7.18797 28.044 7.30797 27.936 7.41597 27.828C11.616 23.64 15.804 19.464 20.004 15.276C20.088 15.192 20.184 15.132 20.328 14.928C20.232 14.868 20.112 14.82 20.028 14.748C15.804 10.548 11.592 6.336 7.36797 2.136C6.88797 1.656 6.76797 1.188 6.98397 0.684C7.13997 0.324 7.45197 0.156 7.77597 0C7.96797 0 8.14797 0 8.31598 0Z" fill="black"/>
</g>
<defs>
<clipPath id="clip0_716_141">
<rect width="30" height="30" fill="white"/>
</clipPath>
</defs>
</svg>
