<svg width="16" height="16" viewBox="0 0 16 16" fill="none" xmlns="http://www.w3.org/2000/svg">
<path d="M15.1111 11.1111C14 11.1111 13 10.8889 11.8889 10.5556C11.6667 10.4444 11.2222 10.5556 11 10.7778L9 12.7778C6.55556 11.5556 4.44444 9.44444 3.11111 6.88889L5.11111 4.88889C5.44444 4.66667 5.55556 4.22222 5.33333 4C5.11111 3 4.88889 2 4.88889 0.888889C4.88889 0.333333 4.55556 0 4 0H0.888889C0.333333 0 0 0.333333 0 0.888889C0 9.22222 6.77778 16 15.1111 16C15.6667 16 16 15.6667 16 15.1111V12C16 11.4444 15.6667 11.1111 15.1111 11.1111ZM14.2222 8H16C16 3.55556 12.4444 0 8 0V1.77778C11.4444 1.77778 14.2222 4.55556 14.2222 8ZM10.6667 8H12.4444C12.4444 5.55556 10.4444 3.55556 8 3.55556V5.33333C9.55556 5.33333 10.6667 6.44444 10.6667 8Z" fill="#19B0B7"/>
</svg>
