<svg width="30" height="30" viewBox="0 0 30 30" fill="none" xmlns="http://www.w3.org/2000/svg">
<g clip-path="url(#clip0_716_142)">
<path d="M21.684 30C21.396 29.784 21.084 29.604 20.832 29.364C16.368 24.924 11.904 20.472 7.45202 16.032C7.35602 15.936 7.26002 15.84 7.17602 15.732C6.82802 15.3 6.82802 14.712 7.17602 14.268C7.24802 14.184 7.32002 14.112 7.39202 14.028C11.928 9.504 16.464 4.98 21 0.456001C21.36 0.0960012 21.768 -0.108 22.284 0.048C23.04 0.276 23.352 1.176 22.896 1.824C22.812 1.956 22.692 2.064 22.584 2.172C18.384 6.36 14.196 10.536 9.99602 14.724C9.91202 14.808 9.81602 14.868 9.67202 15.072C9.76802 15.132 9.88802 15.18 9.97202 15.252C14.196 19.452 18.408 23.664 22.632 27.864C23.112 28.344 23.232 28.812 23.016 29.316C22.86 29.676 22.548 29.844 22.224 30C22.032 30 21.852 30 21.684 30Z" fill="black"/>
</g>
<defs>
<clipPath id="clip0_716_142">
<rect width="30" height="30" fill="white" transform="translate(30 30) rotate(180)"/>
</clipPath>
</defs>
</svg>
