<svg width="38" height="38" viewBox="0 0 38 38" fill="none" xmlns="http://www.w3.org/2000/svg">
<g filter="url(#filter0_d_2_196)">
<path d="M19 0C10.7148 0 4 6.71484 4 15C4 23.2852 10.7148 30 19 30C27.2852 30 34 23.2852 34 15C34 6.71484 27.2852 0 19 0ZM27.3203 8.53125C27.2148 9.01172 27.1035 9.49805 26.998 9.97852C26.2129 13.6582 25.4277 17.3379 24.6426 21.0176C24.584 21.2871 24.5371 21.5566 24.4668 21.8262C24.2324 22.6992 23.5937 22.9219 22.8613 22.3887C21.6074 21.4688 20.3477 20.5488 19.0938 19.6289C18.7246 19.3594 18.7246 19.3594 18.4023 19.6699C17.793 20.2559 17.1777 20.8359 16.5684 21.4219C16.3691 21.6152 16.1406 21.7266 15.8359 21.7207C15.8535 21.4629 15.8711 21.2109 15.8887 20.9531C15.9707 19.8281 16.0469 18.709 16.1348 17.584C16.1406 17.4961 16.1992 17.3906 16.2637 17.332C18.8008 15.0469 21.3379 12.7676 23.8809 10.4883C23.9043 10.4707 23.9336 10.4531 23.9453 10.4297C23.9922 10.3418 24.0391 10.248 24.0859 10.1602C23.9746 10.1367 23.8633 10.084 23.7578 10.1016C23.6406 10.1191 23.5234 10.1895 23.418 10.2539C20.2656 12.2227 17.1133 14.1914 13.9668 16.1719C13.8203 16.2656 13.6973 16.2891 13.5215 16.2305C12.2148 15.8145 10.9082 15.416 9.60156 15C9.42578 14.9473 9.25586 14.8594 9.10937 14.7539C8.86328 14.5723 8.83398 14.3203 9.05664 14.1094C9.23242 13.9453 9.44336 13.7988 9.66602 13.7109C10.8965 13.2246 12.1328 12.7559 13.3633 12.2871C17.582 10.6699 21.8066 9.05273 26.0254 7.44141C26.1484 7.39453 26.2773 7.35352 26.4062 7.3418C26.8691 7.30078 27.1621 7.51172 27.2793 7.96289C27.291 7.99805 27.3027 8.02734 27.3145 8.0625C27.3203 8.21484 27.3203 8.37305 27.3203 8.53125Z" fill="#19B0B7"/>
</g>
<defs>
<filter id="filter0_d_2_196" x="0" y="0" width="38" height="38" filterUnits="userSpaceOnUse" color-interpolation-filters="sRGB">
<feFlood flood-opacity="0" result="BackgroundImageFix"/>
<feColorMatrix in="SourceAlpha" type="matrix" values="0 0 0 0 0 0 0 0 0 0 0 0 0 0 0 0 0 0 127 0" result="hardAlpha"/>
<feOffset dy="4"/>
<feGaussianBlur stdDeviation="2"/>
<feComposite in2="hardAlpha" operator="out"/>
<feColorMatrix type="matrix" values="0 0 0 0 0 0 0 0 0 0 0 0 0 0 0 0 0 0 0.25 0"/>
<feBlend mode="normal" in2="BackgroundImageFix" result="effect1_dropShadow_2_196"/>
<feBlend mode="normal" in="SourceGraphic" in2="effect1_dropShadow_2_196" result="shape"/>
</filter>
</defs>
</svg>
