<svg width="38" height="38" viewBox="0 0 38 38" fill="none" xmlns="http://www.w3.org/2000/svg">
<g filter="url(#filter0_d_2_195)">
<path d="M19 0C10.7148 0 4 6.71484 4 15C4 23.2852 10.7148 30 19 30C27.2852 30 34 23.2852 34 15C34 6.71484 27.2852 0 19 0ZM25.9609 17.0215C26.6348 17.6777 27.3438 18.293 27.9414 19.0195C28.2051 19.3418 28.457 19.6699 28.6504 20.0449C28.9258 20.5781 28.6738 21.1582 28.1992 21.1875H25.2461C24.4785 21.252 23.8809 20.9473 23.3652 20.4199C22.9551 20.0039 22.5742 19.5645 22.1816 19.1309C22.0234 18.9551 21.8477 18.791 21.6484 18.6562C21.25 18.3984 20.8984 18.4746 20.6641 18.8965C20.4297 19.3184 20.3711 19.793 20.3535 20.2793C20.3184 20.9766 20.1133 21.1523 19.416 21.1875C17.9277 21.252 16.5098 21.0293 15.1914 20.2793C14.0371 19.6113 13.1348 18.6797 12.3437 17.6191C10.8203 15.5566 9.6543 13.2832 8.59961 10.957C8.38281 10.4355 8.55859 10.1484 9.13281 10.1426C10.0996 10.125 11.0605 10.125 12.0273 10.1426C12.4199 10.1484 12.6777 10.377 12.8242 10.7402C13.3457 12.0234 13.9785 13.2363 14.7812 14.3672C14.998 14.666 15.2148 14.9648 15.5195 15.1816C15.8594 15.416 16.1172 15.3398 16.2871 14.959C16.3867 14.7188 16.4395 14.4609 16.4512 14.2031C16.5273 13.3125 16.5332 12.4219 16.3984 11.5313C16.3164 10.9746 16.0059 10.6172 15.4492 10.5176C15.168 10.4648 15.209 10.3594 15.3496 10.2012C15.584 9.92578 15.8066 9.75 16.2578 9.75H19.5918C20.1133 9.84961 20.2305 10.0898 20.3066 10.6172V14.3203C20.3008 14.5312 20.4062 15.1348 20.7812 15.2695C21.0742 15.3691 21.2734 15.1289 21.4492 14.9473C22.2461 14.0977 22.8145 13.1016 23.3301 12.0586C23.5527 11.6016 23.752 11.127 23.9395 10.6523C24.0801 10.3008 24.2969 10.1309 24.6953 10.1367H27.9062C28 10.1367 28.0996 10.1367 28.1875 10.1543C28.7266 10.248 28.8789 10.4766 28.709 11.0098C28.4453 11.8418 27.9355 12.5332 27.4375 13.2246C26.9043 13.9629 26.3301 14.6836 25.7969 15.4277C25.3105 16.0898 25.3516 16.4297 25.9609 17.0215Z" fill="#19B0B7"/>
</g>
<defs>
<filter id="filter0_d_2_195" x="0" y="0" width="38" height="38" filterUnits="userSpaceOnUse" color-interpolation-filters="sRGB">
<feFlood flood-opacity="0" result="BackgroundImageFix"/>
<feColorMatrix in="SourceAlpha" type="matrix" values="0 0 0 0 0 0 0 0 0 0 0 0 0 0 0 0 0 0 127 0" result="hardAlpha"/>
<feOffset dy="4"/>
<feGaussianBlur stdDeviation="2"/>
<feComposite in2="hardAlpha" operator="out"/>
<feColorMatrix type="matrix" values="0 0 0 0 0 0 0 0 0 0 0 0 0 0 0 0 0 0 0.25 0"/>
<feBlend mode="normal" in2="BackgroundImageFix" result="effect1_dropShadow_2_195"/>
<feBlend mode="normal" in="SourceGraphic" in2="effect1_dropShadow_2_195" result="shape"/>
</filter>
</defs>
</svg>
